<?xml version="1.0" standalone="no"?>
<!DOCTYPE svg PUBLIC "-//W3C//DTD SVG 20010904//EN"
 "http://www.w3.org/TR/2001/REC-SVG-20010904/DTD/svg10.dtd">
<svg version="1.0" xmlns="http://www.w3.org/2000/svg"
 width="500.000000pt" height="500.000000pt" viewBox="0 0 500.000000 500.000000"
 preserveAspectRatio="xMidYMid meet">

<g transform="translate(0.000000,500.000000) scale(0.100000,-0.100000)"
fill="#000000" stroke="none">
<path d="M1475 4400 c-106 -52 -230 -313 -280 -590 -23 -127 -32 -481 -15
-611 l12 -96 -36 -72 c-80 -158 -123 -335 -130 -541 l-5 -115 -123 -13 c-119
-12 -303 -49 -361 -71 -30 -12 -45 -37 -31 -51 6 -6 41 1 87 15 94 29 232 53
349 62 l86 6 7 -49 c6 -44 35 -176 51 -230 5 -19 -1 -22 -58 -33 -122 -24
-284 -83 -433 -157 -210 -104 -297 -166 -270 -193 7 -7 41 9 100 46 176 110
367 195 532 237 139 35 145 35 159 6 70 -140 83 -171 71 -175 -205 -63 -373
-139 -496 -223 -63 -43 -81 -66 -65 -82 8 -8 35 4 95 43 46 30 125 75 175 100
99 49 283 117 317 117 15 0 33 -17 55 -50 51 -74 200 -213 304 -281 634 -417
1532 -352 2059 148 47 46 102 105 120 133 19 27 41 50 50 50 33 0 255 -82 353
-132 55 -27 130 -70 166 -94 70 -47 90 -53 90 -29 0 51 -247 191 -467 265 -65
22 -117 43 -116 47 3 13 75 178 79 182 8 9 142 -21 249 -56 131 -42 339 -139
454 -213 58 -37 85 -50 93 -42 19 19 0 39 -94 98 -176 109 -382 195 -586 244
-92 22 -94 23 -88 49 4 14 17 80 30 146 l23 120 46 3 c65 4 258 -24 375 -54
151 -40 142 -39 142 -15 0 27 -36 43 -152 70 -92 22 -276 49 -353 53 l-50 3
-6 125 c-10 196 -54 373 -135 536 l-36 73 11 88 c14 111 14 350 1 468 -20 171
-65 344 -128 485 -36 82 -130 219 -166 241 -71 43 -143 17 -235 -87 -92 -104
-210 -298 -241 -396 -6 -21 -16 -40 -21 -44 -5 -3 -67 8 -137 25 -286 68 -562
68 -824 0 -112 -29 -138 -30 -138 -8 0 23 -104 228 -154 303 -72 109 -175 212
-224 226 -47 13 -40 13 -87 -10z m102 -102 c58 -50 78 -75 148 -178 67 -100
150 -264 161 -319 4 -17 10 -33 13 -36 4 -2 43 7 87 21 340 104 714 104 1023
-3 40 -14 77 -21 81 -16 4 4 13 26 20 48 7 22 34 83 60 135 111 221 264 400
318 371 43 -23 142 -205 192 -351 47 -140 80 -364 80 -544 0 -120 -15 -259
-31 -284 -10 -17 -8 -28 19 -75 154 -273 204 -603 137 -896 -35 -151 -29 -141
-85 -141 -38 0 -50 -4 -50 -15 0 -10 10 -15 28 -15 58 0 59 -11 11 -107 -43
-85 -45 -88 -83 -93 -44 -6 -60 -27 -25 -32 12 -2 24 -9 27 -16 6 -19 -215
-234 -302 -292 -149 -99 -356 -187 -531 -224 -252 -54 -546 -48 -795 18 -303
80 -563 239 -733 448 -39 48 -41 68 -6 68 11 0 19 7 19 16 0 12 -9 15 -42 12
l-43 -3 -48 95 -49 95 41 9 c59 13 54 36 -8 36 l-49 0 -17 68 c-22 89 -45 260
-45 344 0 195 57 430 146 597 l45 84 -18 36 c-16 31 -18 66 -18 271 0 152 5
261 13 310 45 249 123 452 214 555 16 19 36 35 44 35 7 0 30 -15 51 -32z"/>
<path d="M1605 2858 c-74 -41 -109 -107 -109 -208 0 -81 20 -134 66 -178 80
-74 202 -30 237 87 14 48 14 134 1 183 -26 93 -127 154 -195 116z"/>
<path d="M3294 2851 c-106 -48 -134 -239 -53 -351 100 -138 269 -48 269 144 0
104 -35 177 -102 212 -36 19 -65 17 -114 -5z"/>
<path d="M2294 2656 c-7 -18 70 -173 105 -209 14 -16 38 -35 54 -43 27 -14 27
-15 27 -122 0 -123 -16 -185 -60 -232 -30 -32 -70 -40 -88 -17 -6 7 -12 44
-14 82 -3 65 -5 70 -27 73 -36 5 -44 -11 -43 -82 2 -81 22 -123 69 -142 56
-24 107 -10 157 42 l42 43 17 -28 c17 -29 88 -71 120 -71 36 0 86 29 101 59
22 42 22 164 0 182 -31 25 -49 -1 -52 -77 -4 -99 -31 -119 -91 -69 -41 35 -59
100 -64 233 l-4 113 38 20 c21 10 49 34 63 52 33 43 89 175 82 193 -8 21 -424
21 -432 0z"/>
</g>
</svg>
